<svg xmlns="http://www.w3.org/2000/svg" viewBox="0 0 960 280" role="img" font-family="IBM Plex Sans, system-ui, sans-serif" font-size="12" aria-label="The resting reading climbs for three days after installation and then stays level">
<rect width="960" height="280" style="fill:#0A1112"/>
<text x="56.0" y="18.0" font-weight="600" style="fill:#E6EEEE">Resting CO₂, %</text>
<line x1="56" y1="230.0" x2="880" y2="230.0" style="stroke:#2A3D3F;stroke-width:1"/>
<text x="48.0" y="234.0" text-anchor="end" style="fill:#6F8183">4.7</text>
<line x1="56" y1="190.0" x2="880" y2="190.0" style="stroke:#2A3D3F;stroke-width:1"/>
<text x="48.0" y="194.0" text-anchor="end" style="fill:#6F8183">4.8</text>
<line x1="56" y1="150.0" x2="880" y2="150.0" style="stroke:#2A3D3F;stroke-width:1"/>
<text x="48.0" y="154.0" text-anchor="end" style="fill:#6F8183">4.9</text>
<line x1="56" y1="110.0" x2="880" y2="110.0" style="stroke:#2A3D3F;stroke-width:1"/>
<text x="48.0" y="114.0" text-anchor="end" style="fill:#6F8183">5.0</text>
<line x1="56" y1="70.0" x2="880" y2="70.0" style="stroke:#2A3D3F;stroke-width:1"/>
<text x="48.0" y="74.0" text-anchor="end" style="fill:#6F8183">5.1</text>
<line x1="56" y1="30.0" x2="880" y2="30.0" style="stroke:#2A3D3F;stroke-width:1"/>
<text x="48.0" y="34.0" text-anchor="end" style="fill:#6F8183">5.2</text>
<polyline points="56.0,175.9 59.2,175.3 62.5,175.5 65.7,171.6 68.9,169.7 72.2,167.0 75.4,161.9 78.6,160.6 81.9,158.2 85.1,156.5 88.3,155.4 91.5,155.4 94.8,153.8 98.0,151.9 101.2,149.4 104.5,147.6 107.7,144.4 110.9,142.2 114.2,139.7 117.4,136.1 120.6,133.8 123.9,132.0 127.1,130.2 130.3,128.0 133.6,126.6 136.8,124.3 140.0,121.8 143.2,120.3 146.5,117.6 149.7,116.6 152.9,112.3 156.2,111.1 159.4,112.2 162.6,110.4 165.9,108.2 169.1,108.8 172.3,106.6 175.6,106.0 178.8,106.0 182.0,102.4 185.3,100.4 188.5,97.2 191.7,96.5 194.9,94.3 198.2,92.6 201.4,94.3 204.6,94.6 207.9,94.7 211.1,93.4 214.3,92.6 217.6,91.7 220.8,90.2 224.0,89.0 227.3,85.6 230.5,84.2 233.7,85.0 237.0,84.8 240.2,83.3 243.4,83.8 246.7,85.4 249.9,85.4 253.1,84.2 256.3,81.9 259.6,83.5 262.8,80.7 266.0,80.4 269.3,78.1 272.5,77.4 275.7,78.6 279.0,75.8 282.2,78.0 285.4,81.9 288.7,84.4 291.9,84.1 295.1,84.4 298.4,82.9 301.6,78.9 304.8,77.9 308.0,75.0 311.3,76.3 314.5,78.8 317.7,81.2 321.0,80.9 324.2,83.6 327.4,81.5 330.7,82.3 333.9,81.9 337.1,81.7 340.4,79.2 343.6,78.0 346.8,77.6 350.1,78.6 353.3,79.9 356.5,81.6 359.7,84.0 363.0,83.0 366.2,84.0 369.4,83.8 372.7,80.9 375.9,83.2 379.1,80.2 382.4,78.2 385.6,79.5 388.8,79.7 392.1,79.0 395.3,79.8 398.5,80.2 401.8,82.9 405.0,81.9 408.2,81.3 411.5,80.4 414.7,81.4 417.9,78.7 421.1,74.1 424.4,74.6 427.6,87.1 430.8,88.8 434.1,96.4 437.3,91.0 440.5,87.1 443.8,84.8 447.0,85.0 450.2,92.5 453.5,86.4 456.7,83.6 459.9,79.5 463.2,76.7 466.4,75.8 469.6,76.3 472.8,75.7 476.1,75.2 479.3,72.3 482.5,72.2 485.8,71.2 489.0,70.8 492.2,68.5 495.5,66.1 498.7,62.4 501.9,62.7 505.2,74.4 508.4,70.4 511.6,84.2 514.9,77.1 518.1,83.9 521.3,84.2 524.5,89.1 527.8,87.7 531.0,81.7 534.2,77.6 537.5,71.8 540.7,69.7 543.9,68.2 547.2,69.0 550.4,69.4 553.6,69.3 556.9,69.4 560.1,68.0 563.3,68.2 566.6,66.2 569.8,65.8 573.0,62.5 576.3,63.5 579.5,70.5 582.7,81.6 585.9,84.9 589.2,81.0 592.4,95.9 595.6,106.0 598.9,117.3 602.1,109.4 605.3,95.7 608.6,92.7 611.8,88.5 615.0,84.7 618.3,85.6 621.5,86.0 624.7,86.8 628.0,82.7 631.2,84.1 634.4,84.6 637.6,83.6 640.9,84.4 644.1,82.6 647.3,82.9 650.6,81.0 653.8,79.2 657.0,78.1 660.3,76.7 663.5,76.9 666.7,77.2 670.0,75.7 673.2,78.6 676.4,77.9 679.7,78.0 682.9,76.4 686.1,73.0 689.3,72.6 692.6,72.0 695.8,71.3 699.0,67.6 702.3,70.6 705.5,72.2 708.7,72.8 712.0,75.3 715.2,77.1 718.4,76.1 721.7,76.6 724.9,75.8 728.1,76.0 731.4,74.7 734.6,73.8 737.8,73.4 741.1,75.6 744.3,79.1 747.5,80.6 750.7,80.7 754.0,80.3 757.2,81.5 760.4,79.9 763.7,78.2 766.9,76.4 770.1,75.9 773.4,74.8 776.6,75.6 779.8,76.8 783.1,75.7 786.3,76.2 789.5,75.5 792.8,77.4 796.0,77.3 799.2,78.2 802.4,76.7 805.7,74.5 808.9,74.3 812.1,86.8 815.4,91.0 818.6,88.0 821.8,87.7 825.1,85.6 828.3,84.8 831.5,83.2 834.8,82.2 838.0,82.1 841.2,79.5 844.5,86.7 847.7,82.4 850.9,79.4 854.1,81.1 857.4,81.4 860.6,82.3 863.8,82.3 867.1,84.6 870.3,86.0 873.5,85.5 876.8,85.5" style="fill:none;stroke:#1FA3AA;stroke-width:2;stroke-linejoin:round;stroke-linecap:round"/>
<circle cx="56.0" cy="175.9" r="4" style="fill:#1FA3AA;stroke:#0A1112;stroke-width:2"/>
<text x="68.0" y="179.9" style="fill:#E6EEEE">4.84 % at the start</text>
<circle cx="876.8" cy="85.5" r="4" style="fill:#1FA3AA;stroke:#0A1112;stroke-width:2"/>
<text x="890.0" y="89.5" style="fill:#E6EEEE">5.06 %</text>
<text x="75.4" y="248.0" text-anchor="middle" style="fill:#6F8183">18 Sep</text>
<text x="152.9" y="248.0" text-anchor="middle" style="fill:#6F8183">19 Sep</text>
<text x="230.5" y="248.0" text-anchor="middle" style="fill:#6F8183">20 Sep</text>
<text x="308.0" y="248.0" text-anchor="middle" style="fill:#6F8183">21 Sep</text>
<text x="385.6" y="248.0" text-anchor="middle" style="fill:#6F8183">22 Sep</text>
<text x="463.2" y="248.0" text-anchor="middle" style="fill:#6F8183">23 Sep</text>
<text x="540.7" y="248.0" text-anchor="middle" style="fill:#6F8183">24 Sep</text>
<text x="618.3" y="248.0" text-anchor="middle" style="fill:#6F8183">25 Sep</text>
<text x="695.8" y="248.0" text-anchor="middle" style="fill:#6F8183">26 Sep</text>
<text x="773.4" y="248.0" text-anchor="middle" style="fill:#6F8183">27 Sep</text>
<text x="850.9" y="248.0" text-anchor="middle" style="fill:#6F8183">28 Sep</text>
</svg>
